{"title":"Boychoir.2014.WEB-DL.x264-RARBG","uid":12133844,"size":943534419,"categoryP":"video","categoryS":"movies","magnet":"?xt=urn:btih:f630bf681cad0085518b8ccd1e0e819b9bbeeb1a&amp;dn=Boychoir.2014.WEB-DL.x264-RARBG&amp;tr=udp%3A%2F%2Ftracker.openbittorrent.com%3A80&amp;tr=udp%3A%2F%2Fopen.demonii.com%3A1337&amp;tr=udp%3A%2F%2Ftracker.coppersurfer.tk%3A6969&amp;tr=udp%3A%2F%2Fexodus.desync.com%3A6969","seeders":0,"leechers":1,"uploader":"vickey1992","files":4,"time":1437133639,"description":"Video\nID                                       : 1\nFormat                                   : AVC\nFormat/Info                              : Advanced Video Codec\nFormat profile                           : &lt;a class=&quot;__cf_email__&quot; href=&quot;/cdn-cgi/l/email-protection&quot; data-cfemail=&quot;82caebe5eac2ceb1acb3&quot;&gt;[email&amp;#160;protected]&lt;/a&gt;&lt;script data-cfhash='f9e31' type=&quot;text/javascript&quot;&gt;\n/* &lt;![CDATA[ */!function(){try{var t=&quot;currentScript&quot;in document?document.currentScript:function(){for(var t=document.getElementsByTagName(&quot;script&quot;),e=t.length;e--;)if(t[e].getAttribute(&quot;data-cfhash&quot;))return t[e]}();if(t&amp;&amp;t.previousSibling){var e,r,n,i,c=t.previousSibling,a=c.getAttribute(&quot;data-cfemail&quot;);if(a){for(e=&quot;&quot;,r=parseInt(a.substr(0,2),16),n=2;a.length-n;n+=2)i=parseInt(a.substr(n,2),16)^r,e+=String.fromCharCode(i);e=document.createTextNode(e),c.parentNode.replaceChild(e,c)}t.parentNode.removeChild(t);}}catch(u){}}()/* ]]&gt; */&lt;/script&gt;\nFormat settings, CABAC                   : Yes\nFormat settings, ReFrames                : 5 frames\nCodec ID                                 : avc1\nCodec ID/Info                            : Advanced Video Coding\nDuration                                 : 1h 43mn\nBit rate                                 : 1 100 Kbps\nWidth                                    : 720 pixels\nHeight                                   : 304 pixels\nDisplay aspect ratio                     : 2.40:1\nFrame rate mode                          : Constant\nFrame rate                               : 24.000 fps\nColor space                              : YUV\nChroma subsampling                       : 4:2:0\nBit depth                                : 8 bits\nScan type                                : Progressive\nBits/(Pixel*Frame)                       : 0.209\nStream size                              : 800 MiB (89%)\nTitle                                    : Boychoir.2014.WEB-DL.x264-RARBG\nWriting library                          : x264 core 142 r2495 6a301b6\nEncoding settings                        : cabac=1 / ref=5 / deblock=1:-2:-2 / analyse=0x3:0x113 / me=umh / subme=8 / psy=1 / psy_rd=0.90:0.00 / mixed_ref=1 / me_range=16 / chroma_me=1 / trellis=1 / 8x8dct=1 / cqm=0 / deadzone=21,11 / fast_pskip=1 / chroma_qp_offset=-2 / threads=8 / lookahead_threads=2 / sliced_threads=0 / nr=0 / decimate=1 / interlaced=0 / bluray_compat=0 / constrained_intra=0 / bframes=3 / b_pyramid=2 / b_adapt=2 / b_bias=0 / direct=3 / weightb=1 / open_gop=0 / weightp=2 / keyint=250 / keyint_min=25 / scenecut=40 / intra_refresh=0 / rc_lookahead=50 / rc=abr / mbtree=1 / bitrate=1100 / ratetol=1.0 / qcomp=0.60 / qpmin=0 / qpmax=69 / qpstep=4 / vbv_maxrate=31250 / vbv_bufsize=31250 / nal_hrd=none / filler=0 / ip_ratio=1.40 / aq=1:1.00\nLanguage                                 : English\n\nAudio\nID                                       : 2\nFormat                                   : AAC\nFormat/Info                              : Advanced Audio Codec\nFormat profile                           : LC\nCodec ID                                 : 40\nDuration                                 : 1h 43mn\nDuration_LastFrame                       : 32ms\nBit rate mode                            : Constant\nBit rate                                 : 128 Kbps\nChannel(s)                               : 2 channels\nChannel(s)_Original                      : 6 channels\nChannel positions                        : Front: L C R, Side: L R, LFE\nSampling rate                            : 48.0 KHz\nCompression mode                         : Lossy\nStream size                              : 94.3 MiB (10%)\nTitle                                    : Boychoir.2014.WEB-DL.x264-RARBG\nLanguage                                 : English\n\nMenu #1\nID                                       : 3\nCodec ID                                 : text\nDuration                                 : 1h 43mn\nLanguage                                 : English\nBit rate mode                            : VBR\n\nMenu #2\n00:00:00.043                             : Chapter 1\n00:09:23.043                             : Chapter 2\n00:14:54.043                             : Chapter 3\n00:23:48.043                             : Chapter 4\n00:32:24.043                             : Chapter 5\n00:38:45.043                             : Chapter 6\n00:47:52.043                             : Chapter 7\n00:58:11.043                             : Chapter 8\n01:05:58.043                             : Chapter 9\n01:14:27.043                             : Chapter 10\n01:24:52.043                             : Chapter 11\n01:36:30.043                             : Chapter 12","torrent":{"xt":"urn:btih:f630bf681cad0085518b8ccd1e0e819b9bbeeb1a","amp;dn":"Boychoir.2014.WEB-DL.x264-RARBG","amp;tr":["udp%3A%2F%2Ftracker.openbittorrent.com%3A80","udp%3A%2F%2Fopen.demonii.com%3A1337","udp%3A%2F%2Ftracker.coppersurfer.tk%3A6969","udp%3A%2F%2Fexodus.desync.com%3A6969"],"infoHash":"f630bf681cad0085518b8ccd1e0e819b9bbeeb1a","infoHashBuffer":{"type":"Buffer","data":[246,48,191,104,28,173,0,133,81,139,140,205,30,14,129,155,155,190,235,26]},"announce":[],"urlList":[]}}